# xmcd CD database file generated by Grip 2.95
# 
# Track frame offsets:
#       150
#       17972
#       33110
# 
# Disc length: 647 seconds
# 
# Revision: 3
# Processed by: cddbd v1.4PL0 Copyright (c) Steve Scherf et al.
# Submitted via: Grip 2.95
# 
DISCID=19028503
DTITLE=Tracy Chapman - Telling Stories (single)
DYEAR=1900
DGENRE=
TTITLE0=Telling Stories (lp version)
TTITLE1=Nothing Yet (lp version)
TTITLE2=Three Little Birds (non-lp track)
EXTD=
EXTT0=
EXTT1=
EXTT2=
PLAYORDER=
